<svg xmlns="http://www.w3.org/2000/svg" x="0px" y="0px" width="22.5px" height="25px" viewBox="0 0 22.5 25">
<!-- <style type="text/css">
	.st0{fill-rule:evenodd;clip-rule:evenodd;fill:#505050;}
</style> -->
<defs>
</defs>
<g>
	<path class="st0" d="M11.9,3.6c0.4,0,0.7,0,0.9,0.3c0.1,0.2,0.3,0.6,0.3,0.9l-1,0c0,0-0.8,0.2-0.9,0.2l0,1.9c0.6,0.1,1.3,0,1.4,0
		c0.3,0-0.2-0.1,0.1,0l0.1,0l0.2,0.9c0.8,0,0.6,0,0.7-0.6C13.7,6.9,13.7,7,14,7c0-0.3,0-0.8,0-1.2c0-0.7,0-0.5-0.4-0.9
		c-0.5-0.4-0.5-1.4-0.9-1.5l-1.5,0.1L11.9,3.6z M13.6,6c-0.2,0.1-0.3,0.3-0.6,0.2c-0.2-0.1-0.3-0.3-0.2-0.6C13,5.2,13.7,5.1,13.6,6z
		"/>
	<path class="st0" d="M14.6,1.1c-0.5-0.4-1.7-1-2.5-1C11.8,0,10.9,0,10.4,0C10,0.1,9.3,0.3,9,0.4c-1.7,0.7-3.1,2.2-3.4,4
		C5.2,5.8,5.3,6.4,5.7,7.7C6.5,9.8,8.3,13,9.7,15l1.5,2.2c0.2,0,0,0,0.1-0.1c0.3-0.2,2.4-3.6,2.8-4.1c1-1.8,3.1-5.2,3-7.3
		C17,3.7,16.1,2.2,14.6,1.1z M12,9.9c-2.7,0.4-5-1.5-5-4.1c0-2,1.1-3.5,2.8-4.1c0.8-0.3,1.1-0.3,2-0.2c1.9,0.1,3.7,2,3.8,4.1
		c0,1.3-0.4,2.2-1,2.9C14.1,9,13,9.8,12,9.9z"/>
	<path class="st0" d="M12.7,7L12.7,7c-0.4-0.1,0.2,0-0.2-0.1c-0.1,0-0.8,0.1-1.4,0l0-1.9c0.1,0,0.9-0.2,0.9-0.2l-2.8,0
		c0-0.2,0.1-0.5,0.2-0.7c0.4-0.8,1-0.6,2.3-0.6l-0.6-0.1l1.5-0.1c-0.2-0.1-0.6-0.1-0.9-0.2c-0.4,0-0.5,0-0.9,0l-0.5,0
		C9.9,3.3,9.7,3.2,9.4,3.6c-0.2,0.3-0.3,0.7-0.5,1C8.5,5.4,8.2,4.6,8.4,7c0.3,0.1,0.3-0.1,0.4,0.3c0.1,0.3,0,0.5,0.3,0.6
		C9.7,8.2,9.7,7.4,9.7,7L12.7,7z M9.1,6.1C9,6,8.8,5.9,8.9,5.6C9,5.4,9.2,5.2,9.4,5.3C9.7,5.5,9.9,6.2,9.1,6.1z"/>
	<path class="st0" d="M0.7,22c-0.1,0.3-0.3,0.9-0.4,1.2C0,23.8,0,23.9,0,24.7c0.1,0.1,0.1,0.2,0.3,0.3C0.6,25,0.8,25,1,25
		c0.2-0.3,2.4-1.7,2.7-2l0.9-0.7c1.4-1,1.2-1,1.9-0.4l4.3,3.1l0.1,0c0.6,0,0.7-0.1,1.3-0.5l1.5-1c0.2-0.1,0.2-0.2,0.4-0.3
		c0.1-0.1,0.8-0.6,1.1-0.8l1.2-0.8c0.1,0,1.7,1.1,2,1.3l0.6,0.4c0,0,0,0,0,0c0.2,0.1,0.8,0.5,0.9,0.7c0.2,0,0.1,0,0.1,0
		c0.2,0.1,0.3,0.2,0.5,0.3c0.1,0.1,0.3,0.2,0.4,0.3c0.4,0.3,0.4,0.5,1.1,0.4c0,0,0,0,0.1-0.1l0.2-0.1c0.3-0.3,0.1-0.9,0-1.3
		c-0.4-1.2-3-8.4-3.2-8.8c-0.2-0.5-0.9-0.7-1.1-0.9c-0.2-0.1-1-0.6-1.1-0.8c-0.1,0,0,0-0.2-0.1l-0.4-0.2c-0.2-0.1-0.3-0.3-0.5-0.3
		c-0.1,0.1-0.3,0.5-0.4,0.6c0,0.2,1.3,1,1.5,1.2c0.9,0.6,1,0.5,1.3,1.3c0.1,0.5,0.3,0.9,0.4,1.3c0.4,1.2,0.8,3,1.2,4
		c0.1,0.4,0.3,0.9,0.4,1.3c-0.3-0.1-2.8-2-3.4-2.3c-0.6-0.4-0.9-0.1-1.3,0.2l-3.9,2.7c-0.1,0.1-0.4,0.3-0.6,0.4
		c-0.1,0-3.9-2.7-4.5-3.1c-1-0.7-1-0.5-2.5,0.6c-0.4,0.3-1.9,1.4-2.2,1.5c0.6-2.2,1.4-4.5,2-6.7c0.1-0.3,0.1-0.5,0.3-0.6l2.1-1.4
		c0.2-0.1,0.4-0.3,0.4-0.4c0-0.1-0.3-0.5-0.4-0.6c-0.2,0-0.9,0.6-1.2,0.7c-0.4,0.3-0.8,0.5-1.2,0.8c-0.4,0.3-0.8,0.5-1,1
		C2.4,17.1,1.5,20,0.7,22"/>
	<path class="st0" d="M11.7,21.5c0.2,0,0.6-0.4,1-0.6c0.3-0.2,0.5-0.4,0.9-0.7c0.6-0.4,1.2-0.8,1.9-1.3c0.5-0.4,0.5-0.2,0.4-1
		c-0.1-0.4-0.2-0.9-0.2-1.3c0-0.4-0.4-2.5-0.5-2.6c-0.2,0-0.2,0.2-0.3,0.4L12,19.2c-0.2,0.4-0.4,0.5-0.4,1
		C11.7,20.6,11.6,21.2,11.7,21.5"/>
	<path class="st0" d="M6.6,18c-0.1,0.7-0.1,0.6,0.4,1l1.8,1.3c0.2,0.2,1.6,1.2,1.9,1.2c0.1-0.2,0.1-1,0.1-1.4c0-0.4-0.2-0.6-0.4-0.9
		L8,14.9c-0.2-0.3-0.3-0.8-0.6-0.8L6.6,18z"/>
	<path class="st0" d="M4,19.9c0.3,0,1.6-1,1.8-1.2C6,18.6,6,18.2,6.1,17.9c0.1-0.4,0.7-3.2,0.7-3.4c-0.2,0-0.9,0.6-1.2,0.7
		c-0.6,0.4-0.4,0.3-0.7,1.3C4.7,17.1,4,19.7,4,19.9"/>
	<path class="st0" d="M18.5,19.9c0-0.3-0.9-3.3-1-4c-0.1-0.4-0.2-0.4-0.5-0.6c-0.3-0.2-0.9-0.8-1.2-0.8c0,0.2,0.6,2.9,0.7,3.3
		c0.2,1,0.1,0.7,1.1,1.4c0.1,0.1,0.1,0.1,0.3,0.2C18,19.7,18.2,19.9,18.5,19.9"/>
</g>
</svg>
