<svg xmlns="http://www.w3.org/2000/svg" x="0px" y="0px" width="28.2px" height="25px" viewBox="0 0 28.2 25">
<!-- <style type="text/css">
	.st0{fill-rule:evenodd;clip-rule:evenodd;fill:#505050;}
</style> -->
<defs>
</defs>
<path class="st0" d="M27.1,16.7H26c-0.1-0.6-0.4-1.2-0.7-1.7l0.8-0.8c0.4-0.4,0.4-1.1,0-1.5c-0.4-0.4-1.1-0.4-1.5,0l-0.8,0.8
	c-0.5-0.3-1.1-0.6-1.7-0.7v-1.2c0-0.6-0.5-1.1-1.1-1.1c-0.6,0-1.1,0.5-1.1,1.1v1.2c-0.6,0.1-1.2,0.4-1.7,0.7l-0.8-0.8
	c-0.3-0.3-0.6-0.3-0.9-0.3c0.1-0.3,0.2-0.7,0.3-1h1.6c0.8,0,1.4-0.6,1.4-1.4c0-0.8-0.6-1.4-1.4-1.4h-1.6c-0.2-0.9-0.5-1.7-1-2.4
	l1.1-1.1c0.6-0.6,0.6-1.5,0-2c-0.6-0.6-1.5-0.6-2,0L13.7,4c-0.7-0.5-1.5-0.8-2.4-1V1.4c0-0.8-0.6-1.4-1.4-1.4C9.1,0,8.4,0.6,8.4,1.4
	V3C7.6,3.2,6.8,3.6,6.1,4L4.9,2.9c-0.6-0.6-1.5-0.6-2,0c-0.6,0.6-0.6,1.5,0,2L4,6.1C3.6,6.8,3.2,7.6,3,8.4H1.4C0.6,8.4,0,9.1,0,9.9
	c0,0.8,0.6,1.4,1.4,1.4H3c0.2,0.9,0.5,1.7,1,2.4l-1.1,1.1c-0.6,0.6-0.6,1.5,0,2c0.6,0.6,1.5,0.6,2,0l1.1-1.1c0.7,0.5,1.5,0.8,2.4,1
	v1.6c0,0.8,0.6,1.4,1.4,1.4c0.8,0,1.4-0.6,1.4-1.4v-1.6c0.9-0.2,1.7-0.5,2.4-1l1,1c-0.5,0-1,0.5-1,1c0,0.6,0.5,1.1,1.1,1.1h1.2
	c0.1,0.6,0.4,1.2,0.7,1.7l-0.8,0.8c-0.4,0.4-0.4,1.1,0,1.5c0.4,0.4,1.1,0.4,1.5,0l0.8-0.8c0.5,0.3,1.1,0.6,1.7,0.7v1.2
	c0,0.6,0.5,1.1,1.1,1.1c0.6,0,1.1-0.5,1.1-1.1v-1.2c0.6-0.1,1.2-0.4,1.7-0.7l0.8,0.8c0.4,0.4,1.1,0.4,1.5,0c0.4-0.4,0.4-1.1,0-1.5
	l-0.8-0.8c0.3-0.5,0.6-1.1,0.7-1.7h1.2c0.6,0,1.1-0.5,1.1-1.1C28.2,17.2,27.7,16.7,27.1,16.7z M9.9,13.5c-2,0-3.6-1.6-3.6-3.6
	s1.6-3.6,3.6-3.6c2,0,3.6,1.6,3.6,3.6S11.9,13.5,9.9,13.5z M20.9,20.4c-1.5,0-2.7-1.2-2.7-2.7s1.2-2.7,2.7-2.7
	c1.5,0,2.7,1.2,2.7,2.7S22.4,20.4,20.9,20.4z"/>
</svg>
