<svg xmlns="http://www.w3.org/2000/svg" x="0px" y="0px" width="30.5px" height="25px" viewBox="0 0 30.5 25">
<style type="text/css">
	.st0{fill:#7FC4BF;}
</style>
<defs>
</defs>
<path class="st0" d="M23.7,7.9v-5c0-0.3-0.3-0.6-0.6-0.6h-2.6c-0.3,0-0.6,0.3-0.6,0.6v0c0,0.5-0.6,0.8-1,0.4l-3.1-3.1
	c-0.2-0.2-0.6-0.2-0.8,0L0.2,14.8c-0.4,0.4-0.1,1,0.4,1h4c0.3,0,0.6,0.3,0.6,0.6v7.9c0,0.3,0.3,0.6,0.6,0.6h6.4
	c0.3,0,0.6-0.3,0.6-0.6v-5.3c0-0.3,0.3-0.6,0.6-0.6h3.6c0.3,0,0.6,0.3,0.6,0.6v5.3c0,0.3,0.3,0.6,0.6,0.6h6.4c0.3,0,0.6-0.3,0.6-0.6
	v-7.9c0-0.3,0.3-0.6,0.6-0.6h4c0.5,0,0.8-0.6,0.4-1l-6.5-6.5C23.7,8.2,23.7,8.1,23.7,7.9z"/>
</svg>
