<svg xmlns="http://www.w3.org/2000/svg" x="0px" y="0px" width="29.9px" height="25px" viewBox="0 0 29.9 25">
<!-- <style type="text/css">
	.st0{fill-rule:evenodd;clip-rule:evenodd;fill:#505050;}
</style> -->
<defs>
</defs>
<path class="st0" d="M15.8,8.9V0H0v25h15.8h14.1V8.9H15.8z M6.2,18.7H2.7v-3.5h3.5V18.7z M6.2,12.4H2.7V8.9h3.5V12.4z M6.2,6H2.7
	V2.5h3.5V6z M12.7,18.7H9.1v-3.5h3.5V18.7z M12.7,12.4H9.1V8.9h3.5V12.4z M12.7,6H9.1V2.5h3.5V6z M21,21.5h-3.5V18H21V21.5z
	 M21,15.2h-3.5v-3.5H21V15.2z M27.5,21.5h-3.5V18h3.5V21.5z M27.5,15.2h-3.5v-3.5h3.5V15.2z"/>
</svg>
