<svg xmlns="http://www.w3.org/2000/svg" x="0px" y="0px" width="19px" height="25px" viewBox="0 0 19 25">
<!-- <style type="text/css">
	.st0{fill-rule:evenodd;clip-rule:evenodd;fill:#505050;}
	.st1{fill:#505050;}
</style> -->
<defs>
</defs>
<g>
	<path class="st0" d="M9.5,0C4.3,0,0,4.3,0,9.5C0,14.8,9.5,25,9.5,25S19,14.8,19,9.5C19,4.3,14.8,0,9.5,0z M9.5,16.2
		c-3.7,0-6.6-3-6.6-6.6c0-3.7,3-6.6,6.6-6.6s6.6,3,6.6,6.6C16.2,13.2,13.2,16.2,9.5,16.2z"/>
	<g>
		<path class="st1" d="M10.6,15.1H8.5V13h2.1V15.1z M10.4,6.7l-0.3,5.8H8.9L8.6,6.7V3.9h1.8V6.7z"/>
	</g>
</g>
</svg>
