<svg xmlns="http://www.w3.org/2000/svg" x="0px" y="0px" width="120.1px" height="122.8px" viewBox="0 0 120.1 122.8">
<style type="text/css">
	.st0{fill-rule:evenodd;clip-rule:evenodd;fill:#7FC4BF;}
	.st1{fill-rule:evenodd;clip-rule:evenodd;fill:#41726F;}
	.st2{fill:#41726F;}
	.st3{fill:#262324;}
</style>
<defs>
</defs>
<g>
	<path class="st0" d="M58.3,4.6c6.4,0.5,12.2,6.6,12.4,13.4c0.1,4.1-1.3,7.2-3.3,9.6c-1.5,1.9-4.9,4.3-8.2,4.8l0,0.5L57,33.2
		c-0.9,2.2-0.5,13.8-0.5,17.4l-0.2,5.1c0.1,0.7-0.1,0.4,0.3,0.4c1-0.5,7.9-11.7,9-13.5c3.3-5.8,10.1-16.9,9.9-24
		c-0.2-6.3-3.2-11.3-7.8-14.9c-1.7-1.3-5.6-3.3-8.1-3.3c-1.6,0-1.4,0.1-2.8,0.4c-0.1,1.1-0.4,2.4-0.3,3.6
		C57.3,4.3,57.7,4.3,58.3,4.6"/>
	<path class="st1" d="M58.6,11.8c1.4,0,2.3,0.2,2.9,1.1c0.4,0.7,1,2,1.1,3.1L59.5,16c-0.1,0-2.7,0.6-3,0.7l-0.1,6.1
		c2,0.3,4.1,0,4.5,0.1c1.1,0.1-0.7-0.2,0.3,0.1l0.3,0.1l0.5,2.9c2.6,0.1,2.1,0.1,2.4-2c0.2-1.2,0.2-0.9,1.3-1.2
		c0.1-1.1,0.1-2.7,0-3.8c0-2.2,0.1-1.7-1.2-2.8c-1.5-1.3-1.7-4.6-3-5l-5.1,0.3L58.6,11.8z M64.3,19.5c-0.5,0.4-1.1,0.9-1.8,0.6
		c-0.6-0.3-1-1.1-0.7-1.8C62.2,17,64.5,16.8,64.3,19.5z"/>
	<path class="st1" d="M56.6,56c-0.3,0-0.1,0.3-0.3-0.4l0.2-5.1C56.4,47.1,56,35.4,57,33.2l2.2-0.3l0-0.5c-8.7,1.4-16.5-5-16.5-13.5
		c0-6.5,3.7-11.6,9-13.5c2.6-0.9,3.5-0.9,6.6-0.8c-0.6-0.3-1-0.3-1.7-0.3c-0.1-1.1,0.1-2.5,0.3-3.6c1.4-0.3,1.2-0.4,2.8-0.4
		c-1.2-0.5-4.3-0.4-5.8-0.2c-1.3,0.2-3.5,0.8-4.7,1.3c-5.5,2.3-10,7.3-11.3,13.2c-0.9,4.3-0.7,6.3,0.7,10.4
		c2.5,7.1,8.5,17.6,12.8,23.9l4.9,7.4C56.8,56.3,56.3,56.4,56.6,56"/>
	<path class="st0" d="M61.5,23l-0.3-0.1c-1-0.2,0.8,0.1-0.3-0.1c-0.4-0.1-2.6,0.2-4.5-0.1l0.1-6.1c0.3,0,2.9-0.6,3-0.7l-9.1,0
		c0-0.7,0.4-1.7,0.7-2.4c1.2-2.6,3.2-1.8,7.5-1.9l-2-0.3l5.1-0.3c-0.6-0.4-2-0.4-3-0.5c-1.2,0.1-1.5,0.1-3,0.1l-1.5,0
		c-1.9,0.2-2.6-0.3-3.6,1c-0.7,0.9-1.1,2.3-1.6,3.3c-1.3,2.6-2.3-0.1-1.9,8c1.1,0.4,1.1-0.4,1.5,1.1c0.2,0.8,0.1,1.6,0.9,1.9
		c2.1,0.7,2-1.8,2.1-3L61.5,23z M49.6,20.1c-0.4-0.5-0.9-0.8-0.6-1.9c0.2-0.5,0.8-1.1,1.6-0.7C51.6,17.9,52.1,20.3,49.6,20.1z"/>
	<path class="st0" d="M22,71.9c-0.2,1.1-1,2.9-1.4,4c-0.7,2.1-0.9,2.2-0.7,4.8c0.5,0.2,0.3,0.7,1.1,0.9c0.8,0.2,1.5,0,2.2,0.1
		c0.7-0.9,7.9-5.6,9-6.5l3.1-2.1c4.5-3.3,3.8-3.1,6.3-1.4l14,10l0.3,0c1.8,0.1,2.2-0.2,4.1-1.7l4.8-3.3c0.6-0.4,0.7-0.6,1.4-0.9
		c0.3-0.4,2.7-1.9,3.7-2.8l3.9-2.7c0.4,0,5.5,3.7,6.5,4.4l1.9,1.5c0,0,0,0.1,0,0.1c0.6,0.2,2.6,1.5,3,2.2c0.7-0.1,0.3,0.1,0.3,0.1
		c0.6,0.2,1.1,0.6,1.6,1c0.5,0.3,1,0.6,1.5,1c1.4,1,1.3,1.5,3.6,1.3c0,0,0,0,0.2-0.2l0.6-0.5c0.9-0.8,0.4-3.1,0.1-4.1
		c-1.4-4-9.8-27.4-10.4-28.7c-0.7-1.5-3.1-2.2-3.5-3c-0.5-0.2-3.3-1.9-3.7-2.5c-0.4-0.1,0,0.1-0.5-0.2l-1.2-0.8
		c-0.7-0.4-1.1-0.9-1.7-1c-0.3,0.3-1.1,1.6-1.2,2c0.1,0.6,4.2,3.2,5,3.8c2.8,2,3.4,1.7,4.1,4.3c0.5,1.5,0.8,2.8,1.3,4.4
		c1.2,3.8,2.8,9.7,4,13.2c0.4,1.2,1.1,3.1,1.3,4.3c-0.9-0.4-9.3-6.5-11-7.6c-1.9-1.2-2.9-0.4-4.3,0.6l-12.7,9
		c-0.4,0.3-1.4,1-1.9,1.3c-0.4,0.1-12.6-8.7-14.7-10.2c-3.2-2.2-3.3-1.5-8.2,1.9c-1.4,1-6.3,4.6-7.3,5c2-7,4.6-14.8,6.7-21.9
		c0.3-0.9,0.3-1.6,1-2l6.7-4.7c0.5-0.4,1.2-0.8,1.4-1.4c-0.1-0.5-0.8-1.8-1.2-2.1c-0.6,0.1-3,1.8-3.9,2.4c-1.5,1-2.5,1.7-3.8,2.6
		c-1.3,0.9-2.6,1.5-3.2,3.1C27.7,56,24.7,65.3,22,71.9"/>
	<path class="st1" d="M58.1,70.5c0.7,0,2.1-1.3,3.1-1.9c1.1-0.7,1.8-1.4,3-2.2c1.9-1.2,3.8-2.7,6.1-4.2C72,61,72,61.4,71.7,59
		c-0.2-1.4-0.6-2.9-0.8-4.2c-0.1-1.2-1.3-8-1.7-8.6c-0.6,0.1-0.8,0.6-1.1,1.2l-9,15.6c-0.7,1.2-1.2,1.5-1.2,3.2
		C58,67.4,57.9,69.4,58.1,70.5"/>
	<path class="st1" d="M41.5,58.9c-0.4,2.4-0.4,2,1.3,3.2l6,4.2c0.8,0.6,5.3,4,6.2,3.9c0.4-0.8,0.2-3.4,0.2-4.5
		c0-1.2-0.8-2.1-1.3-3.1l-8.1-14.1c-0.7-1.1-1.1-2.5-1.8-2.5L41.5,58.9z"/>
	<path class="st1" d="M32.8,65.3c0.8-0.1,5.3-3.4,5.9-3.9c0.5-0.5,0.6-1.7,0.8-2.6c0.3-1.3,2.2-10.5,2.2-11c-0.8,0-3,1.8-3.9,2.4
		c-1.9,1.3-1.2,0.9-2.3,4.4C35.2,55.9,32.8,64.5,32.8,65.3"/>
	<path class="st1" d="M80.4,65.3c0.1-1.1-2.9-10.9-3.4-13.2c-0.3-1.3-0.6-1.3-1.5-1.9c-1-0.6-3.1-2.5-4-2.5
		c-0.1,0.6,1.9,9.6,2.1,10.9c0.7,3.4,0.2,2.3,3.6,4.7c0.4,0.3,0.4,0.4,0.9,0.7C78.8,64.5,79.5,65.1,80.4,65.3"/>
	<g>
		<path class="st2" d="M3.5,104.2c0.1,0.6,0.3,1.1,0.6,1.5c0.3,0.4,0.6,0.8,1,1.1c0.4,0.3,0.9,0.5,1.4,0.6c0.5,0.1,1.1,0.2,1.6,0.2
			c0.6,0,1.1-0.1,1.6-0.2c0.5-0.1,0.9-0.3,1.2-0.5c0.3-0.2,0.6-0.5,0.8-0.8c0.2-0.3,0.3-0.7,0.3-1.1s-0.1-0.7-0.3-1
			c-0.2-0.3-0.5-0.5-0.9-0.7c-0.4-0.2-0.9-0.4-1.6-0.6c-0.7-0.2-1.5-0.4-2.4-0.6c-1.1-0.2-2-0.5-2.8-0.8c-0.8-0.3-1.4-0.7-2-1.2
			c-0.5-0.4-0.9-1-1.1-1.5s-0.4-1.3-0.4-2c0-0.8,0.2-1.6,0.5-2.2c0.3-0.7,0.8-1.3,1.4-1.8c0.6-0.5,1.4-0.9,2.2-1.2
			C5.6,91.2,6.6,91,7.6,91s2,0.1,2.9,0.4c0.9,0.3,1.6,0.7,2.3,1.2c0.7,0.5,1.2,1.1,1.6,1.9c0.4,0.8,0.6,1.6,0.7,2.5h-3.5
			c-0.4-1.8-1.7-2.7-3.9-2.7c-1.2,0-2.1,0.2-2.7,0.6c-0.6,0.4-0.9,0.9-0.9,1.6c0,0.3,0.1,0.5,0.2,0.7c0.1,0.2,0.4,0.4,0.6,0.6
			c0.3,0.2,0.7,0.3,1.1,0.5c0.5,0.1,1,0.3,1.7,0.4C8.4,98.9,9,99,9.6,99.1c0.6,0.1,1.2,0.3,1.8,0.5c0.6,0.2,1.1,0.4,1.6,0.7
			c0.5,0.3,1,0.6,1.4,1.1c0.4,0.4,0.7,0.9,0.9,1.5c0.2,0.6,0.3,1.2,0.3,2c0,0.9-0.2,1.7-0.5,2.4c-0.4,0.7-0.9,1.4-1.5,1.9
			c-0.7,0.5-1.4,0.9-2.3,1.2c-0.9,0.3-1.9,0.4-2.9,0.4c-1.3,0-2.5-0.2-3.5-0.5c-1-0.3-1.8-0.8-2.5-1.4c-0.7-0.6-1.2-1.3-1.6-2.1
			c-0.4-0.8-0.6-1.7-0.7-2.7H3.5z"/>
		<path class="st2" d="M27.1,110.9c-1.2,0-2.2-0.1-3.1-0.4c-0.8-0.2-1.6-0.6-2.1-1c-0.6-0.4-1-0.9-1.4-1.5c-0.3-0.6-0.6-1.2-0.7-1.8
			c-0.2-0.6-0.3-1.3-0.3-2c0-0.7-0.1-1.3-0.1-2v-11H23v11c0,1.1,0.1,2,0.3,2.7c0.2,0.7,0.5,1.2,0.8,1.6c0.3,0.4,0.8,0.6,1.3,0.8
			c0.5,0.1,1.1,0.2,1.8,0.2c0.7,0,1.3-0.1,1.8-0.2c0.5-0.1,0.9-0.4,1.3-0.8c0.3-0.4,0.6-0.9,0.8-1.6c0.2-0.7,0.3-1.6,0.3-2.7v-11
			h3.6v11c0,1.3-0.1,2.5-0.3,3.6c-0.2,1.1-0.6,1.9-1.2,2.7c-0.6,0.7-1.4,1.3-2.4,1.7C29.9,110.7,28.6,110.9,27.1,110.9z"/>
	</g>
	<g>
		<path class="st2" d="M45.9,89.2h20v5.3h-6.7v16.1h-6.6V94.5h-6.7V89.2z"/>
	</g>
	<g>
		<path class="st2" d="M80,107h-7.5l-1,3.5h-6.7l8-21.3h7.2l8,21.3h-6.9L80,107z M78.6,102.4l-2.4-7.7l-2.3,7.7H78.6z"/>
		<path class="st2" d="M88.6,89.2h7.3l3.8,6.6l3.7-6.6h7.2l-6.6,10.3l7.3,11h-7.4l-4.2-6.9l-4.2,6.9h-7.4l7.4-11.1L88.6,89.2z"/>
		<path class="st2" d="M113.5,89.2h6.6v21.3h-6.6V89.2z"/>
	</g>
	<g>
		<path class="st3" d="M12.8,121.6v-0.8h1.7v0.8H12.8z"/>
	</g>
	<g>
		<path class="st3" d="M18.6,122.7v-4.4h1.4c0.5,0,0.9,0,1.1,0.1c0.3,0.1,0.5,0.2,0.6,0.4c0.2,0.2,0.3,0.5,0.3,0.9
			c0,0.3,0,0.5-0.1,0.7c-0.1,0.2-0.2,0.3-0.4,0.4c-0.2,0.1-0.3,0.2-0.5,0.2c-0.2,0-0.5,0.1-0.9,0.1h-0.6v1.7H18.6z M19.5,119.1v1.3
			H20c0.4,0,0.6,0,0.7-0.1c0.1,0,0.2-0.1,0.3-0.2c0.1-0.1,0.1-0.2,0.1-0.3c0-0.2,0-0.3-0.1-0.4c-0.1-0.1-0.2-0.2-0.4-0.2
			c-0.1,0-0.3,0-0.6,0H19.5z"/>
	</g>
	<g>
		<path class="st3" d="M23.7,122.7v-4.4h0.9v3.6h2.2v0.7H23.7z"/>
	</g>
	<g>
		<path class="st3" d="M32.4,122.7h-1l-0.4-1h-1.8l-0.4,1H28l1.7-4.4h0.9L32.4,122.7z M30.8,121l-0.6-1.6l-0.6,1.6H30.8z"/>
	</g>
	<g>
		<path class="st3" d="M34.4,122.7v-1.9l-1.6-2.6h1l1,1.8l1-1.8h1l-1.6,2.6v1.9H34.4z"/>
	</g>
	<g>
		<path class="st3" d="M41.8,122.7h-1l-0.4-1h-1.8l-0.4,1h-0.9l1.7-4.4H40L41.8,122.7z M40.1,121l-0.6-1.6l-0.6,1.6H40.1z"/>
	</g>
	<g>
		<path class="st3" d="M45.6,118.3h1.6c0.4,0,0.6,0,0.8,0.1c0.3,0.1,0.5,0.2,0.7,0.4c0.2,0.2,0.3,0.4,0.4,0.7c0.1,0.3,0.1,0.6,0.1,1
			c0,0.4,0,0.7-0.1,0.9c-0.1,0.3-0.3,0.6-0.5,0.8c-0.2,0.2-0.4,0.3-0.6,0.4c-0.2,0.1-0.5,0.1-0.8,0.1h-1.7V118.3z M46.5,119.1v2.9
			h0.7c0.2,0,0.4,0,0.5,0c0.1,0,0.3-0.1,0.4-0.2s0.2-0.2,0.2-0.4c0.1-0.2,0.1-0.5,0.1-0.8c0-0.3,0-0.6-0.1-0.8
			c-0.1-0.2-0.1-0.3-0.3-0.4c-0.1-0.1-0.2-0.2-0.4-0.2c-0.1,0-0.4,0-0.7,0H46.5z"/>
	</g>
	<g>
		<path class="st3" d="M51,122.7v-4.4h3.3v0.7h-2.4v1h2.2v0.7h-2.2v1.2h2.5v0.7H51z"/>
	</g>
	<g>
		<path class="st3" d="M56.1,122.7v-4.4H57v3.6h2.2v0.7H56.1z"/>
	</g>
	<g>
		<path class="st3" d="M66.2,121.1l0.9,0.3c-0.1,0.5-0.4,0.8-0.7,1.1c-0.3,0.2-0.7,0.4-1.2,0.4c-0.6,0-1.1-0.2-1.4-0.6
			c-0.4-0.4-0.6-1-0.6-1.6c0-0.7,0.2-1.3,0.6-1.7c0.4-0.4,0.9-0.6,1.5-0.6c0.5,0,1,0.2,1.3,0.5c0.2,0.2,0.4,0.5,0.5,0.8l-0.9,0.2
			c-0.1-0.2-0.2-0.4-0.3-0.5c-0.2-0.1-0.4-0.2-0.6-0.2c-0.3,0-0.6,0.1-0.8,0.4c-0.2,0.2-0.3,0.6-0.3,1.1c0,0.6,0.1,1,0.3,1.2
			c0.2,0.2,0.5,0.4,0.8,0.4c0.2,0,0.4-0.1,0.6-0.2C66,121.7,66.1,121.4,66.2,121.1z"/>
	</g>
	<g>
		<path class="st3" d="M72.8,122.7h-1l-0.4-1h-1.8l-0.4,1h-0.9l1.7-4.4H71L72.8,122.7z M71.1,121l-0.6-1.6l-0.6,1.6H71.1z"/>
	</g>
	<g>
		<path class="st3" d="M74.2,122.7v-4.4h1.9c0.5,0,0.8,0,1,0.1c0.2,0.1,0.4,0.2,0.5,0.4c0.1,0.2,0.2,0.4,0.2,0.7
			c0,0.3-0.1,0.6-0.3,0.8c-0.2,0.2-0.5,0.4-0.9,0.4c0.2,0.1,0.4,0.2,0.5,0.4c0.1,0.1,0.3,0.4,0.5,0.7l0.5,0.9h-1.1l-0.6-1
			c-0.2-0.3-0.4-0.6-0.5-0.7c-0.1-0.1-0.2-0.2-0.3-0.2c-0.1,0-0.2-0.1-0.4-0.1h-0.2v1.8H74.2z M75.1,120.2h0.7c0.4,0,0.7,0,0.8-0.1
			c0.1,0,0.2-0.1,0.3-0.2c0.1-0.1,0.1-0.2,0.1-0.3c0-0.1,0-0.3-0.1-0.4c-0.1-0.1-0.2-0.1-0.3-0.2c-0.1,0-0.3,0-0.7,0h-0.7V120.2z"/>
	</g>
	<g>
		<path class="st3" d="M79.6,122.7v-4.4h1.3l0.8,3l0.8-3h1.3v4.4H83v-3.5l-0.9,3.5h-0.9l-0.9-3.5v3.5H79.6z"/>
	</g>
	<g>
		<path class="st3" d="M85.7,122.7v-4.4H89v0.7h-2.4v1h2.2v0.7h-2.2v1.2h2.5v0.7H85.7z"/>
	</g>
	<g>
		<path class="st3" d="M90.8,122.7v-4.4h0.9l1.8,3v-3h0.8v4.4h-0.9l-1.8-2.9v2.9H90.8z"/>
	</g>
	<g>
		<path class="st3" d="M98.8,121.6v-0.8h1.7v0.8H98.8z"/>
	</g>
</g>
</svg>
