<svg xmlns="http://www.w3.org/2000/svg" x="0px" y="0px" width="29.2px" height="29.1px" viewBox="0 0 29.2 29.1">
<style type="text/css">
	.st0{fill:#FFFFFF;}
</style>
<defs>
</defs>
<g>
	<path class="st0" d="M7.6,27.1c2.1,1.2,4.6,1.9,7.2,1.9c8,0,14.5-6.5,14.5-14.5c0-8-6.5-14.5-14.5-14.5C6.8,0,0.3,6.5,0.3,14.5
		c0,2.5,0.7,4.9,1.8,7L0,29.1L7.6,27.1z M14.8,2.3C21.5,2.3,27,7.7,27,14.5c0,6.8-5.5,12.2-12.2,12.2c-2.6,0-5-0.8-7-2.2l-4.4,1.1
		l1.1-4.4c-1.3-1.9-2-4.3-2-6.8C2.5,7.7,8,2.3,14.8,2.3z"/>
	<path class="st0" d="M11.3,18c2.1,2.4,6.5,3.4,6.5,3.4c4.8,0.1,3.9-3.6,3.9-3.6l-3.3-1.6c-0.6,0-2,1.8-2,1.8
		c-3.3-0.5-5.5-4.7-5.5-4.7c0.8-0.7,1.1-1.9,1.1-1.9l-1.5-3.5c-1-0.7-3.4,0.3-3.4,3.3C7.2,14.2,11.3,18,11.3,18z"/>
</g>
</svg>
