<svg xmlns="http://www.w3.org/2000/svg" x="0px" y="0px" width="24.4px" height="16.8px" viewBox="0 0 24.4 16.8">
<style type="text/css">
	.st0{fill:#FFFFFF;}
</style>
<defs>
</defs>
<g>
	<path class="st0" d="M23.5,1.5H5.8V1c0-0.6-0.4-1-0.8-1S4.2,0.4,4.2,1v0.5H0.8C0.4,1.5,0,1.9,0,2.5c0,0.6,0.4,1,0.8,1h3.4V4
		c0,0.6,0.4,1,0.8,1s0.8-0.4,0.8-1V3.5h17.8c0.4,0,0.8-0.4,0.8-1C24.4,1.9,24,1.5,23.5,1.5z"/>
	<path class="st0" d="M23.5,7.4h-3.3V6.9c0-0.6-0.4-1-0.8-1c-0.4,0-0.8,0.4-0.8,1v0.5H0.8C0.4,7.4,0,7.8,0,8.4c0,0.6,0.4,1,0.8,1
		h17.9v0.5c0,0.6,0.4,1,0.8,1c0.4,0,0.8-0.4,0.8-1V9.4h3.3c0.4,0,0.8-0.4,0.8-1C24.4,7.8,24,7.4,23.5,7.4z"/>
	<path class="st0" d="M23.5,13.3H13v-0.5c0-0.6-0.4-1-0.8-1c-0.4,0-0.8,0.4-0.8,1v0.5H0.8c-0.4,0-0.8,0.4-0.8,1c0,0.6,0.4,1,0.8,1
		h10.6v0.5c0,0.6,0.4,1,0.8,1c0.4,0,0.8-0.4,0.8-1v-0.5h10.6c0.4,0,0.8-0.4,0.8-1C24.4,13.7,24,13.3,23.5,13.3z"/>
</g>
</svg>
